<svg width="600" height="600" viewBox="0 0 600 600" fill="none" xmlns="http://www.w3.org/2000/svg">
<path d="M290.007 333L263.007 380.5C263.007 382.5 305.5 383 323.5 381.5" stroke="black" stroke-width="8" stroke-linecap="round" stroke-linejoin="round"/>
<path d="M273 218C297.993 214.854 336.007 217 336.007 218.646L309.007 266.646" stroke="black" stroke-width="8" stroke-linecap="round" stroke-linejoin="round"/>
<path d="M318.007 297.203C318.007 297.203 372.634 205.615 368.634 204.203C338.458 193.553 236.634 198.703 232.134 204.203C229.953 206.868 266.719 255.168 297.302 297.203C331.134 343.703 371.211 395.883 368.634 398.203C363.634 402.703 240.134 403.203 232.134 398.203C229.166 396.348 276.507 314.5 276.507 314.5" stroke="black" stroke-width="8" stroke-linecap="round" stroke-linejoin="round"/>
</svg>
