<svg width="145" height="212" viewBox="0 0 145 212" fill="none" xmlns="http://www.w3.org/2000/svg">
<path d="M62.0068 139L35.0068 186.5C35.0068 188.5 77.4998 189 95.4998 187.5" stroke="#212121" stroke-width="8" stroke-linecap="round" stroke-linejoin="round"/>
<path d="M45 24.0002C69.993 20.8542 108.007 23.0002 108.007 24.6462L81.007 72.6462" stroke="#212121" stroke-width="8" stroke-linecap="round" stroke-linejoin="round"/>
<path d="M90.0069 103.203C90.0069 103.203 144.634 11.6152 140.634 10.2032C110.458 -0.446836 8.63394 4.70316 4.13394 10.2032C1.95294 12.8682 38.7189 61.1682 69.3019 103.203C103.134 149.703 143.211 201.883 140.634 204.203C135.634 208.703 12.1339 209.203 4.13394 204.203C1.16594 202.348 48.5069 120.5 48.5069 120.5" stroke="#212121" stroke-width="8" stroke-linecap="round" stroke-linejoin="round"/>
</svg>
