<svg xmlns="http://www.w3.org/2000/svg" xmlns:xlink="http://www.w3.org/1999/xlink" width="600" height="600" viewBox="0 0 600 600"><defs><clipPath id="b"><rect width="600" height="600"/></clipPath></defs><g id="a" clip-path="url(#b)"><g transform="translate(227.798 209)" fill="#111"><path d="M 139.9833068847656 192.676025390625 L 3.29401421546936 192.676025390625 C 1.315198421478271 192.676025390625 -0.2946963012218475 191.0665283203125 -0.2946963012218475 189.0882110595703 C -0.2946963012218475 188.1111297607422 0.09109316766262054 187.1977691650391 0.7916458249092102 186.5163879394531 L 0.8785142302513123 186.4318695068359 L 0.9170668721199036 186.3169708251953 C 0.993277370929718 186.0897064208984 1.093224763870239 185.8683929443359 1.214119434356689 185.6591796875 L 48.55872344970703 103.6546020507813 C 49.19777679443359 102.547737121582 50.38977813720703 101.8601303100586 51.6695671081543 101.8601303100586 C 52.29538345336914 101.8601303100586 52.9145393371582 102.0266799926758 53.46014404296875 102.3417892456055 C 54.29038238525391 102.8208923339844 54.88414764404297 103.5945510864258 55.13219833374023 104.5202865600586 C 55.38025283813477 105.4460220336914 55.25298690795898 106.4131011962891 54.77385711669922 107.2433929443359 L 10.02454090118408 184.7504272460938 L 9.591514587402344 185.5004272460938 L 10.45754051208496 185.5004272460938 L 132.7484588623047 185.5004272460938 L 133.7089691162109 185.5004272460938 L 133.1580352783203 184.713623046875 L 0.7800931930541992 -4.340816974639893 L 0.7565931677818298 -4.374369621276855 L 0.727935254573822 -4.403658866882324 C 0.06848790496587753 -5.077816963195801 -0.2946963012218475 -5.968606472015381 -0.2946963012218475 -6.912001132965088 C -0.2946963012218475 -8.890316963195801 1.315198421478271 -10.49979019165039 3.29401421546936 -10.49979019165039 L 140.9832000732422 -10.49979019165039 C 141.9338531494141 -10.49979019165039 142.8296966552734 -10.13200092315674 143.5056762695313 -9.464184761047363 C 144.1811218261719 -8.796895980834961 144.5596771240234 -7.906948566436768 144.5716247558594 -6.958237648010254 L 144.572509765625 -6.885974884033203 L 144.5938568115234 -6.816948413848877 C 144.8878784179688 -5.865185260772705 144.7710876464844 -4.824764251708984 144.2734375 -3.962422132492065 L 90.92869567871094 88.43331146240234 C 90.28977966308594 89.54044342041016 89.09770202636719 90.22817993164063 87.81761932373047 90.22826385498047 C 87.19196319580078 90.22828674316406 86.57280731201172 90.06184387207031 86.02712249755859 89.7469482421875 C 84.31380462646484 88.75742340087891 83.72446441650391 86.55860137939453 84.71351623535156 84.84549713134766 L 135.1848754882813 -2.574211597442627 L 135.6178894042969 -3.324211597442627 L 134.7518615722656 -3.324211597442627 L 11.21335601806641 -3.324211597442627 L 10.25285625457764 -3.324211597442627 L 10.80377769470215 -2.537422180175781 L 142.3619384765625 185.3475036621094 C 142.7125701904297 185.8482666015625 142.9306488037109 186.43212890625 142.9926147460938 187.0359802246094 L 143.0040130615234 187.1469421386719 L 143.0615081787109 187.2425842285156 C 143.3954925537109 187.7980041503906 143.572021484375 188.4361877441406 143.572021484375 189.0882110595703 C 143.572021484375 191.0665283203125 141.9621124267578 192.676025390625 139.9833068847656 192.676025390625 Z M 95.08859252929688 176.9358978271484 L 31.39919853210449 176.9358978271484 C 29.88435554504395 176.9358978271484 28.60348701477051 175.8536071777344 28.35359382629395 174.3624420166016 L 28.34940910339355 174.3375244140625 L 28.34275054931641 174.3131866455078 C 28.12351417541504 173.5114440917969 28.23159408569336 172.6735534667969 28.64711952209473 171.9538116455078 L 56.49132919311523 123.7255020141602 C 57.04135513305664 122.7727890014648 58.06751251220703 122.1809692382813 59.16935729980469 122.1809692382813 C 59.70801544189453 122.1809692382813 60.24098968505859 122.3242874145508 60.71059417724609 122.5954208374023 C 62.18490982055664 123.4470520019531 62.69190979003906 125.3394470214844 61.84067153930664 126.8138122558594 L 36.90082931518555 170.0102081298828 L 36.46780395507813 170.7602081298828 L 37.33383178710938 170.7602081298828 L 95.08859252929688 170.7602081298828 C 96.79148864746094 170.7602081298828 98.17691040039063 172.1452026367188 98.17691040039063 173.8476104736328 C 98.17691040039063 175.5505065917969 96.79148864746094 176.9358978271484 95.08859252929688 176.9358978271484 Z M 85.31819915771484 58.58673477172852 C 84.77972412109375 58.58676147460938 84.24685668945313 58.44344711303711 83.77719879150391 58.17228698730469 C 82.30267333984375 57.32097244262695 81.79570007324219 55.4285774230957 82.64711761474609 53.95389556884766 L 107.6272506713867 10.68639373779297 L 108.0602493286133 9.936393737792969 L 107.194221496582 9.936393737792969 L 48.39841079711914 9.936393737792969 C 46.69601440429688 9.936393737792969 45.31101608276367 8.550998687744141 45.31101608276367 6.848104476928711 C 45.31101608276367 5.145209312438965 46.69601440429688 3.759814739227295 48.39841079711914 3.759814739227295 L 112.0886993408203 3.759814739227295 C 112.6439056396484 3.759814739227295 113.1880950927734 3.90865683555603 113.6624069213867 4.19020938873291 L 113.7328262329102 4.232025146484375 L 113.8129119873047 4.249156951904297 C 114.1270904541016 4.31647253036499 114.4291229248047 4.432999134063721 114.7105941772461 4.595499038696289 C 115.4246978759766 5.007630348205566 115.9355163574219 5.673419952392578 116.1490631103516 6.470262050628662 C 116.3626174926758 7.26723575592041 116.2531204223633 8.099577903747559 115.8406753540039 8.813920021057129 L 87.99559020996094 57.04220962524414 C 87.44559478759766 57.99484252929688 86.41967010498047 58.5866584777832 85.31819915771484 58.58673477172852 Z" stroke="none"/><path d="M 139.9833068847656 192.176025390625 C 141.6864318847656 192.176025390625 143.072021484375 190.7908477783203 143.072021484375 189.0882110595703 C 143.072021484375 188.5269775390625 142.9201965332031 187.9778747558594 142.6330108642578 187.5002288818359 L 142.5180206298828 187.3090057373047 L 142.4952545166016 187.0870056152344 C 142.4419555664063 186.5677337646484 142.2542266845703 186.0653991699219 141.9523620605469 185.6342926025391 L 10.39419841766357 -2.250632524490356 L 9.29238224029541 -3.824211597442627 L 11.21335601806641 -3.824211597442627 L 134.7518615722656 -3.824211597442627 L 136.4839019775391 -3.824211597442627 L 135.6178894042969 -2.324211597442627 L 85.14653778076172 85.09549713134766 C 84.29530334472656 86.56986999511719 84.80256652832031 88.46231842041016 86.27703857421875 89.31386566162109 C 86.74683380126953 89.58499908447266 87.279541015625 89.72828674316406 87.81759643554688 89.72826385498047 C 88.91959381103516 89.72821044921875 89.94572448730469 89.13629150390625 90.49567413330078 88.18331146240234 L 143.8403778076172 -4.212343215942383 C 144.2750091552734 -4.965474605560303 144.3729400634766 -5.838053703308105 144.1161193847656 -6.669369220733643 L 144.0734558105469 -6.807448387145996 L 144.0716400146484 -6.951948165893555 C 144.0505065917969 -8.632527351379395 142.6650390625 -9.999790191650391 140.9832000732422 -9.999790191650391 L 3.29401421546936 -9.999790191650391 C 1.590882658958435 -9.999790191650391 0.2053036987781525 -8.614605903625488 0.2053036987781525 -6.912001132965088 C 0.2053036987781525 -6.100106239318848 0.5178562998771667 -5.33344841003418 1.08535635471344 -4.753316879272461 L 1.142672061920166 -4.694737911224365 L 1.189672112464905 -4.627606391906738 L 133.567626953125 184.4268341064453 L 134.6694641113281 186.0004272460938 L 132.7484588623047 186.0004272460938 L 10.45754051208496 186.0004272460938 L 8.72548770904541 186.0004272460938 L 9.591514587402344 184.5004272460938 L 54.34077835083008 106.9934997558594 C 54.75319671630859 106.2788391113281 54.86275100708008 105.4464721679688 54.64925003051758 104.6497116088867 C 54.43577575683594 103.8529968261719 53.92477798461914 103.1871795654297 53.21006774902344 102.7747650146484 C 52.74040985107422 102.5035018920898 52.20769882202148 102.3601303100586 51.6695671081543 102.3601303100586 C 50.56782913208008 102.3601303100586 49.54175186157227 102.9519500732422 48.99172592163086 103.9046020507813 L 1.647040486335754 185.9093475341797 C 1.542829990386963 186.0896759033203 1.456724762916565 186.2803192138672 1.391119480133057 186.4759521484375 L 1.314014196395874 186.7057952880859 L 1.140251040458679 186.8748168945313 C 0.5373300313949585 187.4612426757813 0.2053036987781525 188.247314453125 0.2053036987781525 189.0882110595703 C 0.2053036987781525 190.7908477783203 1.590882658958435 192.176025390625 3.29401421546936 192.176025390625 L 139.9833068847656 192.176025390625 M 95.08859252929688 176.4358978271484 C 96.51580047607422 176.4358978271484 97.67691040039063 175.2747955322266 97.67691040039063 173.8476104736328 C 97.67691040039063 172.4209136962891 96.51580047607422 171.2602081298828 95.08859252929688 171.2602081298828 L 37.33383178710938 171.2602081298828 L 35.60177612304688 171.2602081298828 L 36.46780395507813 169.7602081298828 L 61.40767288208008 126.5638122558594 C 62.12106704711914 125.3281555175781 61.69612121582031 123.7421340942383 60.46062088012695 123.0284194946289 C 60.0668830871582 122.8011322021484 59.62038421630859 122.6809692382813 59.16935729980469 122.6809692382813 C 58.2455940246582 122.6809692382813 57.38535690307617 123.177001953125 56.92433166503906 123.9755020141602 L 29.08012008666992 172.2037811279297 C 28.73188209533691 172.8070220947266 28.64127731323242 173.5093078613281 28.82504081726074 174.1812896728516 L 28.83835601806641 174.2299957275391 L 28.84669876098633 174.27978515625 C 29.05609321594238 175.5291290283203 30.12956619262695 176.4358978271484 31.39919853210449 176.4358978271484 L 95.08859252929688 176.4358978271484 M 85.31816864013672 58.08673477172852 C 86.24159240722656 58.0866813659668 87.10159301757813 57.59065628051758 87.56256866455078 56.79220962524414 L 115.4076690673828 8.563920021057129 C 115.753303527832 7.965235710144043 115.8450927734375 7.267656803131104 115.6660919189453 6.599683284759521 C 115.4871444702148 5.931867599487305 115.0590667724609 5.37391996383667 114.4605941772461 5.028525352478027 C 114.2244110107422 4.892157077789307 113.9712524414063 4.794446468353271 113.7081756591797 4.738078117370605 L 113.5480117797852 4.703762054443359 L 113.4071960449219 4.620156764984131 C 113.0100631713867 4.384419918060303 112.5541458129883 4.259814739227295 112.0886993408203 4.259814739227295 L 48.39841079711914 4.259814739227295 C 46.97172546386719 4.259814739227295 45.81101608276367 5.420919895172119 45.81101608276367 6.848104476928711 C 45.81101608276367 8.275288581848145 46.97172546386719 9.436393737792969 48.39841079711914 9.436393737792969 L 107.194221496582 9.436393737792969 L 108.9262542724609 9.436393737792969 L 108.0602493286133 10.93639373779297 L 83.08011627197266 54.20389556884766 C 82.36656951904297 55.43981552124023 82.79143524169922 57.02581405639648 84.02717590332031 57.73928833007813 C 84.42093658447266 57.96660614013672 84.86735534667969 58.08676147460938 85.31816864013672 58.08673477172852 M 139.9833068847656 193.176025390625 L 3.29401421546936 193.176025390625 C 1.035908937454224 193.176025390625 -0.7946963310241699 191.3462829589844 -0.7946963310241699 189.0882110595703 C -0.7946963310241699 187.9388885498047 -0.3204331398010254 186.9005584716797 0.4430142343044281 186.1579742431641 C 0.528724730014801 185.9024200439453 0.6411194801330566 185.6514434814453 0.7811984419822693 185.4090270996094 L 48.12569808959961 103.4046020507813 C 48.88267135620117 102.0934982299805 50.25668716430664 101.3601379394531 51.6695671081543 101.3601379394531 C 52.36321640014648 101.3601379394531 53.06622314453125 101.5368881225586 53.71019744873047 101.9088134765625 C 55.66590881347656 103.0373916625977 56.33551406860352 105.5376052856445 55.2069091796875 107.4933166503906 L 10.45754051208496 185.0004272460938 L 132.7484588623047 185.0004272460938 L 0.3705142140388489 -4.054027557373047 C -0.3503805100917816 -4.790974617004395 -0.7946963310241699 -5.799500942230225 -0.7946963310241699 -6.912001132965088 C -0.7946963310241699 -9.170105934143066 1.035908937454224 -10.99979019165039 3.29401421546936 -10.99979019165039 L 140.9832000732422 -10.99979019165039 C 143.2238006591797 -10.99979019165039 145.0434875488281 -9.198448181152344 145.0715637207031 -6.964527130126953 C 145.3957214355469 -5.915237903594971 145.2987823486328 -4.738816738128662 144.7064819335938 -3.712501049041748 L 91.36170196533203 88.68331146240234 C 90.60472869873047 89.99502563476563 89.23052215576172 90.72817230224609 87.81763458251953 90.72824859619141 C 87.12399291992188 90.72828674316406 86.42118072509766 90.55162811279297 85.77719879150391 90.18000030517578 C 83.82151794433594 89.05049896240234 83.15190887451172 86.55028533935547 84.280517578125 84.59549713134766 L 134.7518615722656 -2.824211597442627 L 11.21335601806641 -2.824211597442627 L 142.7715148925781 185.0607147216797 C 143.1854553222656 185.6519012451172 143.4212188720703 186.3146057128906 143.4900207519531 186.9849243164063 C 143.8594818115234 187.599365234375 144.072021484375 188.3188934326172 144.072021484375 189.0882110595703 C 144.072021484375 191.3462829589844 142.2414093017578 193.176025390625 139.9833068847656 193.176025390625 Z M 95.08859252929688 177.4358978271484 L 31.39919853210449 177.4358978271484 C 29.6209888458252 177.4358978271484 28.14493560791016 176.1424713134766 27.8604621887207 174.4450836181641 C 27.61656761169434 173.5532379150391 27.71527671813965 172.5678405761719 28.21409225463867 171.7038116455078 L 56.05830383300781 123.4755020141602 C 56.72285079956055 122.324462890625 57.92922973632813 121.6809616088867 59.16935348510742 121.6809616088867 C 59.77835464477539 121.6809616088867 60.39533996582031 121.8360443115234 60.96059417724609 122.1623916625977 C 62.6760139465332 123.1533126831055 63.26459503173828 125.3474960327148 62.27369689941406 127.0638122558594 L 37.33383178710938 170.2602081298828 L 95.08859252929688 170.2602081298828 C 97.07041168212891 170.2602081298828 98.67691040039063 171.8667144775391 98.67691040039063 173.8476104736328 C 98.67691040039063 175.8294219970703 97.07041168212891 177.4358978271484 95.08859252929688 177.4358978271484 Z M 85.31822204589844 59.08673477172852 C 84.70935821533203 59.08676147460938 84.09246063232422 58.93165588378906 83.52719879150391 58.60531616210938 C 81.81090545654297 57.61439514160156 81.22319793701172 55.42020797729492 82.21409606933594 53.70389556884766 L 107.194221496582 10.43639373779297 L 48.39841079711914 10.43639373779297 C 46.41748809814453 10.43639373779297 44.81101608276367 8.829894065856934 44.81101608276367 6.848104476928711 C 44.81101608276367 4.866314888000488 46.41748809814453 3.259814739227295 48.39841079711914 3.259814739227295 L 112.0886993408203 3.259814739227295 C 112.7567520141602 3.259814739227295 113.3820419311523 3.442314863204956 113.9176483154297 3.760262250900269 C 114.2752227783203 3.836867332458496 114.6268539428711 3.969814777374268 114.9605941772461 4.162498950958252 C 116.6760177612305 5.152499198913574 117.2645950317383 7.347604274749756 116.2736968994141 9.063920021057129 L 88.42859649658203 57.29220962524414 C 87.76406860351563 58.4432373046875 86.55809020996094 59.0866584777832 85.31822204589844 59.08673477172852 Z" stroke="none"/></g></g></svg>